<svg xmlns="http://www.w3.org/2000/svg" width="89" height="85" viewBox="0 0 89 85" fill="none">
  <path d="M12.6458 16.3011C13.5669 16.3011 14.4688 16.0385 15.2747 15.5739C16.0615 16.0587 16.9634 16.3011 17.9037 16.3011C20.8013 16.3011 23.1615 13.8165 23.1615 10.7664C23.1615 7.71624 20.8013 5.23169 17.9037 5.23169C16.9826 5.23169 16.0807 5.49428 15.2747 5.95888C14.488 5.47408 13.5861 5.23169 12.6458 5.23169C9.74822 5.23169 7.38794 7.71624 7.38794 10.7664C7.38794 13.8165 9.74822 16.3011 12.6458 16.3011ZM12.6458 8.05964C13.2791 8.05964 13.8931 8.30203 14.3728 8.76662C14.891 9.25141 15.6585 9.25141 16.1766 8.76662C16.6564 8.32223 17.2512 8.07984 17.9037 8.07984C19.3237 8.07984 20.475 9.29181 20.475 10.7866C20.475 12.2814 19.3237 13.4933 17.9037 13.4933C17.2704 13.4933 16.6564 13.2509 16.1766 12.8065C15.9272 12.5642 15.601 12.443 15.2747 12.443C14.9485 12.443 14.6223 12.5642 14.3728 12.8065C13.8931 13.2509 13.2791 13.5135 12.6458 13.5135C11.2258 13.5135 10.0744 12.3016 10.0744 10.8068C10.0744 9.31201 11.2258 8.05964 12.6458 8.05964Z" fill="url(#paint0_linear_173_20)"></path>
  <path d="M32.449 12.1805H36.4787C37.2271 12.1805 37.822 11.5543 37.822 10.7665C37.822 9.97873 37.2271 9.35254 36.4787 9.35254H32.449C31.7006 9.35254 31.1057 9.97873 31.1057 10.7665C31.1057 11.5543 31.7198 12.1805 32.449 12.1805Z" fill="url(#paint1_linear_173_20)"></path>
  <path d="M41.7558 12.1805H45.7856C46.534 12.1805 47.1289 11.5543 47.1289 10.7665C47.1289 9.97873 46.534 9.35254 45.7856 9.35254H41.7558C41.0075 9.35254 40.4126 9.97873 40.4126 10.7665C40.4126 11.5543 41.0075 12.1805 41.7558 12.1805Z" fill="url(#paint2_linear_173_20)"></path>
  <path d="M51.0437 12.1805H55.0734C55.8218 12.1805 56.4167 11.5543 56.4167 10.7665C56.4167 9.97873 55.8218 9.35254 55.0734 9.35254H51.0437C50.2953 9.35254 49.7004 9.97873 49.7004 10.7665C49.7004 11.5543 50.2953 12.1805 51.0437 12.1805Z" fill="url(#paint3_linear_173_20)"></path>
  <path d="M89 83.5658V59.2253V48.0549C89 40.4194 86.3135 33.1072 81.4586 27.4715C76.8915 22.1792 70.7702 18.7452 64.1115 17.7353V6.62548C64.1115 2.96934 61.2906 0 57.8174 0H6.29409C2.82083 0 0 2.96934 0 6.62548V22.058V27.7947V38.9651C0 46.7621 2.78245 54.2158 7.84843 59.9121C12.6074 65.265 18.9207 68.5979 25.7904 69.4261V74.1326C25.7904 74.2336 25.8096 74.3144 25.8288 74.4154V83.586C25.8288 84.3738 26.4237 85 27.1721 85H87.6951C88.4051 84.9798 89 84.3536 89 83.5658ZM86.3135 48.0549V55.4278C86.3135 55.4076 86.3135 55.3874 86.2943 55.3672C86.2367 55.1248 86.1792 54.9026 86.1024 54.6602C86.0832 54.5996 86.064 54.539 86.0448 54.4582C85.9681 54.2158 85.8913 53.9532 85.8146 53.7108C85.8146 53.6906 85.7954 53.6704 85.7954 53.6502C85.7186 53.428 85.6419 53.1856 85.5651 52.9634C85.5459 52.9028 85.5267 52.8422 85.5075 52.7614C85.4308 52.519 85.3348 52.2766 85.2389 52.0342C85.2389 52.014 85.2197 51.9938 85.2197 51.9736C85.1238 51.7514 85.047 51.509 84.9511 51.2868C84.9319 51.2262 84.8935 51.1656 84.8743 51.0848C84.7783 50.8424 84.6824 50.6 84.5673 50.3577C84.5673 50.3375 84.5481 50.3375 84.5481 50.3173C84.4521 50.0951 84.337 49.8527 84.2411 49.6305C84.2027 49.5699 84.1835 49.5093 84.1451 49.4487C84.03 49.2063 83.9148 48.9841 83.7997 48.7619C83.7997 48.7619 83.7997 48.7619 83.7997 48.7417C79.4821 40.2982 71.5377 34.4202 62.5955 32.986C62.4228 32.9456 62.2309 32.9254 62.0582 32.9052C62.0006 32.9052 61.9431 32.885 61.8855 32.885H61.8663C61.8471 32.885 61.8279 32.885 61.7896 32.885C61.7704 32.885 61.7512 32.885 61.7512 32.885C61.7128 32.885 61.6744 32.885 61.6169 32.9052C61.5977 32.9052 61.5977 32.9052 61.5785 32.9052C61.5401 32.9052 61.5209 32.9254 61.4825 32.9254C61.4633 32.9254 61.4442 32.9456 61.425 32.9456C61.4058 32.9456 61.3674 32.9658 61.3482 32.9658C61.329 32.9658 61.3098 32.986 61.2906 32.986C61.2715 33.0062 61.2331 33.0062 61.2139 33.0264C61.1947 33.0264 61.1755 33.0466 61.1755 33.0466C61.1563 33.0668 61.1179 33.087 61.0987 33.087C61.0796 33.087 61.0796 33.1072 61.0604 33.1072C61.022 33.1274 60.9836 33.1678 60.9452 33.188C60.6574 33.4506 60.4847 33.8546 60.4847 34.2586V37.1471L59.4485 36.3189L47.1097 26.4211L51.2163 23.1286L60.5039 15.6951V18.826C60.5039 19.5734 61.0412 20.1794 61.7512 20.24C62.0582 20.2602 62.3269 20.2804 62.5955 20.3208C76.1432 21.856 86.3135 33.7536 86.3135 48.0549ZM41.4105 56.6397H74.3777C74.4161 57.5285 74.6272 58.3971 75.011 59.2051C75.9896 61.2857 77.947 62.5986 80.1345 62.6794V70.3351C77.0259 70.4765 74.5121 73.1024 74.3969 76.3748H40.4511C40.3167 73.1024 37.8221 70.4563 34.7135 70.3351V69.8301L39.837 65.7296C39.7986 65.9922 39.7602 66.2548 39.7602 66.5173C39.7602 68.0929 40.5854 69.5069 41.9094 70.2341C42.4659 70.5371 43.0992 70.6987 43.7324 70.6987C45.1332 70.6987 46.4381 69.9109 47.1481 68.6585C47.1673 68.6383 47.1673 68.6181 47.1865 68.5979C47.5319 67.9717 47.7238 67.2445 47.7238 66.4971C47.7238 64.2954 46.1119 62.4976 44.0586 62.3158L44.903 61.6492C45.2292 61.3866 45.4403 60.9625 45.4403 60.5181C45.4403 60.0737 45.2484 59.6697 44.903 59.3869L41.4105 56.6397ZM43.7324 65.1438C44.4424 65.1438 45.0181 65.7498 45.0181 66.4971C45.0181 66.7193 44.9605 66.9415 44.8646 67.1435C44.8646 67.1637 44.8454 67.1637 44.8454 67.1839C44.6151 67.6081 44.193 67.8707 43.7324 67.8707C43.5213 67.8707 43.3294 67.8101 43.1376 67.7091C42.7154 67.4667 42.4467 67.0223 42.4467 66.4971C42.4276 65.77 43.0224 65.1438 43.7324 65.1438ZM27.9396 45.8329C27.5367 45.5097 26.9802 45.4491 26.5388 45.6915C26.0783 45.9339 25.7904 46.4187 25.7904 46.9641V51.0444C25.5602 51.004 25.3299 50.9434 25.0996 50.903C25.0229 50.8828 24.9461 50.8626 24.8693 50.8424C24.7158 50.802 24.5623 50.7616 24.4088 50.7212C24.3129 50.701 24.2361 50.6808 24.1401 50.6404C24.0058 50.6 23.8715 50.5597 23.7372 50.5193C23.6412 50.4991 23.5453 50.4586 23.4493 50.4384C23.315 50.3981 23.1807 50.3577 23.0655 50.3173C22.9696 50.2769 22.8737 50.2567 22.7777 50.2163C22.6434 50.1759 22.5282 50.1355 22.3939 50.0749C22.298 50.0345 22.202 50.0143 22.1061 49.9739C21.9718 49.9335 21.8566 49.8729 21.7223 49.8325C21.6263 49.7921 21.5304 49.7517 21.4536 49.7315C21.3193 49.6709 21.2042 49.6305 21.0699 49.5699C20.9739 49.5295 20.8972 49.4891 20.8012 49.4689C20.6669 49.4083 20.5326 49.3477 20.3982 49.2871C20.3215 49.2467 20.2447 49.2265 20.168 49.1861C19.9953 49.1053 19.8417 49.0245 19.669 48.9437C19.6307 48.9235 19.5731 48.9033 19.5347 48.8831C19.3236 48.7821 19.1125 48.6811 18.9207 48.5599C18.8631 48.5195 18.7863 48.4791 18.7288 48.4589C18.5944 48.3781 18.4601 48.3175 18.3066 48.2367C18.2298 48.1963 18.1531 48.1357 18.0571 48.0953C17.942 48.0347 17.8077 47.9539 17.6925 47.8731C17.6158 47.8125 17.5198 47.7721 17.4431 47.7115C17.3279 47.6509 17.2128 47.5701 17.0977 47.4893C17.0017 47.4287 16.925 47.3681 16.829 47.3277C16.7139 47.2469 16.6179 47.1863 16.5028 47.1055C16.4069 47.0449 16.3301 46.9843 16.2342 46.9237C16.119 46.8429 16.0231 46.7823 15.9079 46.7015C15.8312 46.6409 15.7352 46.5803 15.6585 46.5197C15.5433 46.4389 15.4474 46.3581 15.3323 46.2773C15.2555 46.2167 15.1787 46.1561 15.0828 46.0955C14.9677 46.0147 14.8717 45.9137 14.7566 45.8329C14.6798 45.7723 14.6031 45.7117 14.5263 45.6511C14.4112 45.5501 14.2768 45.4491 14.1617 45.3481C14.1041 45.3077 14.0466 45.2471 13.989 45.2067C13.8163 45.0452 13.6436 44.9038 13.4709 44.7422C13.4133 44.7018 13.3558 44.6412 13.3174 44.6008C13.2022 44.4796 13.0871 44.3786 12.9528 44.2574C12.876 44.1968 12.8185 44.116 12.7417 44.0554C12.6458 43.9544 12.5498 43.8534 12.4347 43.7524C12.3579 43.6716 12.3003 43.611 12.2236 43.5302C12.1276 43.4292 12.0317 43.3282 11.9357 43.2272C11.859 43.1464 11.7822 43.0656 11.7247 42.9848C11.6287 42.8838 11.552 42.7828 11.456 42.6818C11.3793 42.601 11.3217 42.5202 11.2449 42.4394C11.149 42.3384 11.0722 42.2374 10.9763 42.1364C10.8995 42.0556 10.842 41.9748 10.7652 41.894C10.6693 41.793 10.5925 41.6718 10.5157 41.5708C10.4582 41.49 10.3814 41.4092 10.3238 41.3284C10.2279 41.2072 10.1511 41.1062 10.0552 40.985C9.99763 40.9042 9.94006 40.8234 9.88249 40.7426C9.78655 40.6214 9.6906 40.48 9.59465 40.3588C9.55627 40.2982 9.49871 40.2376 9.46033 40.1568C9.326 39.9548 9.19168 39.7529 9.05735 39.5509C9.03816 39.5105 9.01897 39.4903 8.99978 39.4499C8.90384 39.2883 8.7887 39.1267 8.69276 38.9651H57.779C57.9325 38.9651 58.0668 38.9651 58.2204 38.9449C58.2395 38.9449 58.2395 38.9449 58.2587 38.9449L61.022 41.1466C61.425 41.4698 61.9815 41.5304 62.4228 41.288C62.8834 41.0456 63.1712 40.5608 63.1712 40.0154V35.9553C63.4015 35.9957 63.6317 36.0563 63.862 36.0967C63.9388 36.1169 64.0155 36.1371 64.0923 36.1573C64.2458 36.1977 64.3993 36.2381 64.5528 36.2785C64.6488 36.2987 64.7255 36.3189 64.8215 36.3593C64.9558 36.3997 65.0901 36.4401 65.2244 36.4805C65.3204 36.5007 65.4163 36.5411 65.5123 36.5613C65.6466 36.6017 65.7809 36.6421 65.9153 36.6825C66.0112 36.7229 66.1072 36.7431 66.2031 36.7835C66.3374 36.8239 66.4526 36.8643 66.5869 36.9249C66.6828 36.9653 66.7788 36.9855 66.8747 37.0259C67.0091 37.0663 67.1242 37.1269 67.2585 37.1673C67.3545 37.2077 67.4312 37.2279 67.5272 37.2683C67.6615 37.3289 67.7958 37.3693 67.9301 37.4299C68.0069 37.4703 68.1028 37.4905 68.1796 37.5309C68.3139 37.5915 68.4674 37.6521 68.6018 37.7127C68.6785 37.7531 68.7361 37.7733 68.8129 37.8137C69.0047 37.8945 69.1774 37.9955 69.3693 38.0763C69.3885 38.0965 69.4077 38.0965 69.4461 38.1167C69.6572 38.2177 69.8683 38.3389 70.0793 38.4399C70.1369 38.4601 70.1945 38.5005 70.252 38.5207C70.4056 38.6015 70.5591 38.6823 70.6934 38.7631C70.7702 38.8035 70.8469 38.8439 70.9045 38.8843C71.0388 38.9651 71.1731 39.0459 71.2883 39.1065C71.365 39.1469 71.4418 39.2075 71.5185 39.2479C71.6337 39.3287 71.768 39.4095 71.8831 39.4701C71.9599 39.5307 72.0367 39.5711 72.1134 39.6317C72.2285 39.7125 72.3437 39.7933 72.478 39.8741C72.5548 39.9346 72.6315 39.9751 72.7083 40.0357C72.8234 40.1164 72.9385 40.1972 73.0537 40.278C73.1304 40.3386 73.2072 40.379 73.284 40.4396C73.3991 40.5204 73.5142 40.6214 73.6486 40.7022C73.7253 40.7628 73.7829 40.8032 73.8596 40.8638C73.994 40.9648 74.1091 41.0658 74.2434 41.1668C74.301 41.2072 74.3586 41.2678 74.4161 41.3082C74.5696 41.4294 74.7232 41.5708 74.8767 41.692C74.915 41.7122 74.9342 41.7324 74.9726 41.7728C75.1453 41.9344 75.3372 42.096 75.5099 42.2576C75.5483 42.2778 75.5675 42.3182 75.5867 42.3384C75.7402 42.4798 75.8745 42.601 76.028 42.7424C76.0856 42.803 76.1432 42.8434 76.1815 42.904C76.2967 43.0252 76.4118 43.1262 76.5269 43.2474C76.5845 43.308 76.6421 43.3686 76.7188 43.4292C76.8148 43.5302 76.9299 43.6514 77.0259 43.7524C77.0834 43.813 77.1602 43.8938 77.2178 43.9544C77.3137 44.0554 77.4097 44.1766 77.5056 44.2776C77.5632 44.3584 77.6399 44.419 77.6975 44.4998C77.7934 44.6008 77.8894 44.722 77.9853 44.8432C78.0429 44.924 78.1005 44.9846 78.158 45.0654C78.254 45.1866 78.3499 45.3077 78.4459 45.4087C78.5034 45.4895 78.561 45.5501 78.6186 45.6309C78.7145 45.7521 78.8105 45.8733 78.9064 46.0147C78.964 46.0753 79.0024 46.1561 79.0599 46.2167C79.1751 46.3581 79.271 46.5197 79.3862 46.6611C79.4245 46.7015 79.4629 46.7621 79.4821 46.8025C79.6164 47.0045 79.7508 47.2065 79.8851 47.4085C79.9043 47.4287 79.9235 47.4489 79.9235 47.4893C80.0386 47.6509 80.1345 47.8125 80.2305 47.9741H30.6645L27.9396 45.8329ZM2.6865 23.4922H46.4573L44.1162 25.3707C43.79 25.6333 43.5789 26.0575 43.5789 26.5019C43.5789 26.9463 43.7708 27.3503 44.1162 27.6331L45.1141 28.4411H4.77814C4.73976 28.1785 4.70138 27.8957 4.663 27.6331C4.56705 26.9261 4.01056 26.4211 3.33894 26.4211H2.70569V23.4922H2.6865ZM7.1768 36.1775C7.15761 36.1573 7.15761 36.1371 7.13842 36.0967C7.08085 35.9957 7.04248 35.8947 6.98491 35.7735C6.90815 35.5917 6.83139 35.4099 6.73545 35.2483C6.67788 35.1271 6.6395 35.0059 6.58193 34.9049C6.50518 34.7433 6.44761 34.5615 6.37085 34.4C6.33247 34.2788 6.2749 34.1576 6.23652 34.0364C6.17896 33.8748 6.1022 33.693 6.04463 33.5314C6.00625 33.4102 5.94868 33.289 5.91031 33.1678C5.85274 32.986 5.79517 32.8244 5.7376 32.6426C5.69922 32.5214 5.66085 32.4002 5.62247 32.279C5.5649 32.0972 5.50733 31.9154 5.46895 31.7336C5.43057 31.6124 5.39219 31.4912 5.37301 31.3902C5.37301 31.3498 5.35382 31.3094 5.35382 31.2892H48.6257L54.7663 36.2179H7.1768V36.1775ZM6.29409 2.84815H57.8366C59.8323 2.84815 61.4442 4.54492 61.4442 6.64568V11.5744H61.425C61.3866 11.5946 61.3482 11.6148 61.3098 11.635C61.2906 11.635 61.2714 11.6552 61.2523 11.6552C61.1947 11.6956 61.1371 11.736 61.0796 11.7764L49.9881 20.6642H2.6865V6.62548C2.6865 4.54492 4.29841 2.84815 6.29409 2.84815ZM2.6865 38.9651V31.5922C2.72488 31.7336 2.76326 31.8548 2.80164 31.9962C2.84002 32.0972 2.85921 32.2184 2.89759 32.3194C2.97434 32.582 3.0511 32.8446 3.12786 33.1072C3.14705 33.1678 3.16624 33.2284 3.18542 33.2688C3.28137 33.592 3.39651 33.895 3.49245 34.2182C3.53083 34.299 3.55002 34.4 3.5884 34.4808C3.66516 34.703 3.74191 34.9251 3.83786 35.1473C3.87624 35.2685 3.93381 35.3695 3.97219 35.4907C4.04894 35.6927 4.1257 35.8947 4.22165 36.0967C4.26003 36.2179 4.31759 36.3189 4.35597 36.4401C4.45192 36.6421 4.54787 36.8643 4.64381 37.0663C4.68219 37.1673 4.73976 37.2481 4.77814 37.3491C4.91246 37.6521 5.06598 37.9551 5.21949 38.2379C9.65222 46.8631 17.7693 52.7816 26.9802 54.0744C27.0377 54.0744 27.0953 54.0946 27.1337 54.0946H27.1529C27.1912 54.0946 27.2104 54.0946 27.2488 54.0946H27.268C27.3064 54.0946 27.3639 54.0744 27.4023 54.0744H27.4215C27.4599 54.0744 27.4983 54.0542 27.5367 54.0542C27.5558 54.0542 27.5558 54.0542 27.575 54.034C27.5942 54.034 27.6326 54.0138 27.6518 53.9936C27.671 53.9936 27.6902 53.9734 27.6902 53.9734C27.7094 53.9532 27.7477 53.9532 27.7669 53.933C27.7861 53.933 27.7861 53.9128 27.8053 53.9128C27.8245 53.8926 27.8629 53.8724 27.8821 53.8522C27.9012 53.8522 27.9013 53.832 27.9204 53.832C27.9588 53.8118 27.9972 53.7714 28.0356 53.7512C28.3234 53.4886 28.4961 53.1048 28.4961 52.6806V49.7921L29.4364 50.5394L41.8903 60.5181L32.5834 67.9717L28.5153 71.2441V68.1131C28.5153 67.3657 27.978 66.7597 27.268 66.6991C13.4517 65.7094 2.6865 53.5088 2.6865 38.9651ZM86.3135 82.1519H28.4961V74.7992L32.0269 71.9712C32.1229 72.6378 32.6794 73.163 33.351 73.163H34.4448C36.2678 73.163 37.7646 74.7184 37.7646 76.6576V77.8089C37.7646 78.5967 38.3594 79.2229 39.1078 79.2229H75.7018C76.4502 79.2229 77.0451 78.5967 77.0451 77.8089V76.6374C77.0451 74.7184 78.5226 73.1428 80.3648 73.1428H81.4586C82.207 73.1428 82.8019 72.5166 82.8019 71.7289V61.2452C82.8019 60.4575 82.207 59.8313 81.4586 59.8313H80.3648C79.0983 59.8313 77.9661 59.0839 77.4097 57.9123C77.1794 57.4275 77.0643 56.9023 77.0643 56.3569V55.2258C77.0643 54.438 76.4694 53.8118 75.721 53.8118H39.1078C38.7816 53.8118 38.4937 53.933 38.2635 54.1148L34.1953 50.8626H81.804C81.8232 50.8828 81.8232 50.9232 81.8424 50.9434C81.9767 51.2464 82.111 51.5494 82.2454 51.8322C82.2646 51.8726 82.2837 51.913 82.2837 51.9332C82.4181 52.2564 82.5524 52.5796 82.6675 52.8826C82.6675 52.8826 82.6675 52.8826 82.6675 52.9028C82.7827 53.226 82.8978 53.5492 83.0129 53.8724C83.0321 53.9128 83.0321 53.933 83.0513 53.9734C83.1664 54.2966 83.2624 54.5996 83.3583 54.9228C83.3775 54.9632 83.3967 55.0238 83.3967 55.0642C83.4927 55.3672 83.5694 55.6904 83.6462 55.9933C83.6654 56.0539 83.6654 56.0943 83.6846 56.1549C83.7613 56.4781 83.8381 56.7811 83.9148 57.1043C83.934 57.1447 83.934 57.2053 83.9532 57.2457C84.03 57.5689 84.0875 57.8921 84.1451 58.2355C84.1451 58.2759 84.1643 58.3163 84.1643 58.3365C84.2219 58.6799 84.2794 59.0233 84.3178 59.3869C84.3946 59.9121 84.7208 60.3363 85.1621 60.5181C85.3157 60.5787 85.4692 60.6191 85.6419 60.6191H86.2751V82.1519H86.3135Z" fill="url(#paint4_linear_173_20)"></path>
  <path d="M72.0559 70.8401C74.3202 70.8401 76.1816 68.901 76.1816 66.4972C76.1816 64.0935 74.3394 62.1543 72.0559 62.1543C69.7723 62.1543 67.9302 64.0935 67.9302 66.4972C67.9302 68.901 69.7915 70.8401 72.0559 70.8401ZM72.0559 65.0024C72.8426 65.0024 73.4951 65.6892 73.4951 66.5174C73.4951 67.3456 72.8426 68.0324 72.0559 68.0324C71.2691 68.0324 70.6167 67.3456 70.6167 66.5174C70.6167 65.6892 71.2691 65.0024 72.0559 65.0024Z" fill="url(#paint5_linear_173_20)"></path>
  <path d="M53.4038 70.9209C54.4209 71.6683 55.5722 72.153 56.8387 72.2944V73.3852C56.8387 73.8094 57.1649 74.1326 57.5679 74.1326C57.9709 74.1326 58.2971 73.7892 58.2971 73.3852V72.3348C60.4271 72.1329 61.8663 70.8401 61.8663 68.9009C61.8663 67.0223 60.7725 65.9518 58.2395 65.265V61.8916C58.8152 62.033 59.3717 62.2956 59.9666 62.6592C60.1393 62.7602 60.2928 62.8208 60.4655 62.8208C60.9836 62.8208 61.4058 62.3966 61.4058 61.8512C61.4058 61.427 61.1755 61.1645 60.9069 61.0029C60.1393 60.4979 59.295 60.1545 58.3163 60.0333V59.6495C58.3163 59.2253 57.9901 58.9021 57.5871 58.9021C57.1841 58.9021 56.8579 59.2455 56.8579 59.6495V60.0131C54.7663 60.1949 53.3463 61.4876 53.3463 63.3662C53.3463 64.1742 53.5382 64.8206 53.922 65.3256C54.4784 66.0932 55.4763 66.5982 56.9347 66.9819V70.4563C56.0136 70.2745 55.246 69.8705 54.4592 69.2847C54.3057 69.1635 54.1138 69.0827 53.9028 69.0827C53.3846 69.0827 52.9817 69.5069 52.9817 70.0523C52.9625 70.4361 53.1352 70.7189 53.4038 70.9209ZM58.2204 67.3455C59.506 67.7697 59.8706 68.2343 59.8706 69.0221C59.8706 69.8705 59.295 70.4361 58.2204 70.5573V67.3455ZM56.2439 64.6186C55.5147 64.255 55.3036 63.851 55.3036 63.245C55.3036 62.4774 55.8409 61.8714 56.9155 61.7704V64.8812C56.6468 64.8004 56.4166 64.7196 56.2439 64.6186Z" fill="url(#paint6_linear_173_20)"></path>
  <defs>
    <linearGradient id="paint0_linear_173_20" x1="8.01058" y1="6.39689" x2="15.2999" y2="18.1876" gradientUnits="userSpaceOnUse">
      <stop stop-color="#BC0D2C"></stop>
      <stop offset="1" stop-color="#E65F1E"></stop>
    </linearGradient>
    <linearGradient id="paint1_linear_173_20" x1="31.3708" y1="9.65022" x2="32.7284" y2="13.3102" gradientUnits="userSpaceOnUse">
      <stop stop-color="#BC0D2C"></stop>
      <stop offset="1" stop-color="#E65F1E"></stop>
    </linearGradient>
    <linearGradient id="paint2_linear_173_20" x1="40.6777" y1="9.65022" x2="42.0353" y2="13.3102" gradientUnits="userSpaceOnUse">
      <stop stop-color="#BC0D2C"></stop>
      <stop offset="1" stop-color="#E65F1E"></stop>
    </linearGradient>
    <linearGradient id="paint3_linear_173_20" x1="49.9656" y1="9.65022" x2="51.3231" y2="13.3102" gradientUnits="userSpaceOnUse">
      <stop stop-color="#BC0D2C"></stop>
      <stop offset="1" stop-color="#E65F1E"></stop>
    </linearGradient>
    <linearGradient id="paint4_linear_173_20" x1="3.51316" y1="8.94737" x2="65.1628" y2="82.2212" gradientUnits="userSpaceOnUse">
      <stop stop-color="#BC0D2C"></stop>
      <stop offset="1" stop-color="#E65F1E"></stop>
    </linearGradient>
    <linearGradient id="paint5_linear_173_20" x1="68.2559" y1="63.0686" x2="74.6317" y2="69.944" gradientUnits="userSpaceOnUse">
      <stop stop-color="#BC0D2C"></stop>
      <stop offset="1" stop-color="#E65F1E"></stop>
    </linearGradient>
    <linearGradient id="paint6_linear_173_20" x1="53.331" y1="60.5053" x2="63.6539" y2="67.342" gradientUnits="userSpaceOnUse">
      <stop stop-color="#BC0D2C"></stop>
      <stop offset="1" stop-color="#E65F1E"></stop>
    </linearGradient>
  </defs>
</svg>