<svg xmlns="http://www.w3.org/2000/svg" width="88" height="87" viewBox="0 0 88 87" fill="none">
  <path d="M42.5928 76.1598L38.2098 68.6728C37.0012 66.6076 34.3135 65.8985 32.2206 67.0904L30.955 67.811C29.9407 68.3889 28.7613 68.5417 27.6286 68.2434C26.4974 67.9436 25.5518 67.2288 24.9672 66.2286L17.6597 53.7478C17.0751 52.7476 16.9188 51.5831 17.2213 50.4677C17.5253 49.3522 18.2502 48.4197 19.2645 47.8432L20.5301 47.1226C21.5444 46.5447 22.2693 45.6123 22.5718 44.4968C22.8758 43.3813 22.7194 42.2154 22.1348 41.2166L17.7504 33.7282C16.5417 31.6629 13.8526 30.9553 11.7612 32.1457L8.26234 34.1375C6.0701 35.3855 4.18477 37.151 2.80804 39.2479L2.59613 39.565C-0.703928 44.5876 -0.869077 50.9274 2.16498 56.1114L15.1416 78.2755C18.0354 83.2188 23.3084 86.2021 29.0492 86.2021C29.3283 86.2021 29.6075 86.1949 29.8881 86.1805L30.2754 86.1603C32.8038 86.032 35.2985 85.3057 37.4893 84.0576L40.9881 82.0659C43.0824 80.874 43.8015 78.2236 42.5928 76.1598ZM40.2091 78.6963C40.1083 79.0682 39.8672 79.3795 39.5281 79.5712L36.0293 81.5629C34.236 82.5833 32.1958 83.1785 30.1263 83.2837L29.739 83.3038C24.7743 83.5561 20.156 81.0758 17.6744 76.8358L4.69775 54.6716C2.21468 50.4302 2.35059 45.2433 5.05144 41.1316L5.26189 40.8116C6.3887 39.0981 7.93204 37.6525 9.72383 36.6322L13.2227 34.6404C13.4521 34.5093 13.7035 34.4473 13.9519 34.4473C14.4576 34.4473 14.9501 34.7053 15.2191 35.1679L19.6035 42.6564C20.0069 43.3453 19.7672 44.2273 19.0686 44.625L17.803 45.3456C16.112 46.3084 14.9034 47.862 14.3977 49.7211C13.892 51.5803 14.1522 53.523 15.1284 55.189L22.4359 67.6698C23.4122 69.3372 24.9877 70.5291 26.873 71.0277C28.7569 71.5235 30.727 71.2699 32.4179 70.3071L33.6836 69.5866C34.0226 69.3934 34.4158 69.3444 34.7928 69.4424C35.1699 69.5419 35.4856 69.7797 35.68 70.114L40.0645 77.6025C40.2574 77.9368 40.31 78.326 40.2091 78.6963Z" fill="url(#paint0_linear_7_198)"></path>
  <path d="M34.0718 77.4559C34.879 77.4559 35.5333 76.8106 35.5333 76.0147C35.5333 75.2187 34.879 74.5735 34.0718 74.5735C33.2647 74.5735 32.6104 75.2187 32.6104 76.0147C32.6104 76.8106 33.2647 77.4559 34.0718 77.4559Z" fill="url(#paint1_linear_7_198)"></path>
  <path d="M28.2847 79.0945C29.0919 79.0945 29.7462 78.4493 29.7462 77.6534C29.7462 76.8574 29.0919 76.2122 28.2847 76.2122C27.4776 76.2122 26.8232 76.8574 26.8232 77.6534C26.8232 78.4493 27.4776 79.0945 28.2847 79.0945Z" fill="url(#paint2_linear_7_198)"></path>
  <path d="M13.6119 42.5145C14.419 42.5145 15.0734 41.8692 15.0734 41.0733C15.0734 40.2773 14.419 39.6321 13.6119 39.6321C12.8047 39.6321 12.1504 40.2773 12.1504 41.0733C12.1504 41.8692 12.8047 42.5145 13.6119 42.5145Z" fill="url(#paint3_linear_7_198)"></path>
  <path d="M9.27888 46.6451C10.086 46.6451 10.7404 45.9998 10.7404 45.2039C10.7404 44.4079 10.086 43.7627 9.27888 43.7627C8.47172 43.7627 7.81738 44.4079 7.81738 45.2039C7.81738 45.9998 8.47172 46.6451 9.27888 46.6451Z" fill="url(#paint4_linear_7_198)"></path>
  <path d="M79.763 0H34.4566C30.4273 0 27.1492 3.2326 27.1492 7.20598V28.6063C27.1492 32.6301 30.496 36.0299 34.4566 36.0299H35.9181V40.7599C35.9181 43.0846 37.2218 45.1282 39.3205 46.0909C40.0863 46.4425 40.8974 46.6155 41.7013 46.6155C43.0078 46.6155 44.2998 46.1615 45.3608 45.2795L56.4828 36.0299H79.763C83.7923 36.0299 87.0704 32.7973 87.0704 28.8239V7.20598C87.0704 3.2326 83.7923 0 79.763 0ZM84.1475 28.8239C84.1475 31.2077 82.1803 33.1475 79.763 33.1475H55.9494C55.7682 33.1475 55.5913 33.185 55.4247 33.2484C55.2654 33.1893 55.0973 33.1475 54.9176 33.1475H49.0716C48.2648 33.1475 47.6101 33.7932 47.6101 34.5887C47.6101 35.3842 48.2648 36.0299 49.0716 36.0299H51.9493L43.4784 43.0745C42.2552 44.0891 41.0246 43.6942 40.5525 43.478C39.7253 43.0975 38.8411 42.1838 38.8411 40.7599V34.5887C38.8411 33.7932 38.1864 33.1475 37.3796 33.1475H34.4566C32.0803 33.1475 30.0722 31.0679 30.0722 28.6063V7.20598C30.0722 4.82224 32.0393 2.88239 34.4566 2.88239H79.763C82.1803 2.88239 84.1475 4.82224 84.1475 7.20598V28.8239Z" fill="url(#paint5_linear_7_198)"></path>
  <path d="M41.4324 11.2239C38.2083 11.2239 35.5864 13.8094 35.5864 16.9887C35.5864 20.1679 38.2083 22.7534 41.4324 22.7534C44.6565 22.7534 47.2784 20.1679 47.2784 16.9887C47.2784 13.8094 44.6565 11.2239 41.4324 11.2239ZM41.4324 19.8711C39.8204 19.8711 38.5094 18.5783 38.5094 16.9887C38.5094 15.399 39.8204 14.1063 41.4324 14.1063C43.0444 14.1063 44.3554 15.399 44.3554 16.9887C44.3554 18.5783 43.0444 19.8711 41.4324 19.8711Z" fill="url(#paint6_linear_7_198)"></path>
  <path d="M56.7781 11.3118C53.554 11.3118 50.9321 13.8973 50.9321 17.0766C50.9321 20.2558 53.554 22.8413 56.7781 22.8413C60.0022 22.8413 62.6241 20.2558 62.6241 17.0766C62.6241 13.8973 60.0022 11.3118 56.7781 11.3118ZM56.7781 19.9589C55.1661 19.9589 53.8551 18.6662 53.8551 17.0766C53.8551 15.4869 55.1661 14.1942 56.7781 14.1942C58.3901 14.1942 59.7011 15.4869 59.7011 17.0766C59.7011 18.6662 58.3901 19.9589 56.7781 19.9589Z" fill="url(#paint7_linear_7_198)"></path>
  <path d="M72.1238 11.2239C68.8998 11.2239 66.2778 13.8094 66.2778 16.9887C66.2778 20.1679 68.8998 22.7534 72.1238 22.7534C75.3479 22.7534 77.9698 20.1679 77.9698 16.9887C77.9698 13.8094 75.3479 11.2239 72.1238 11.2239ZM72.1238 19.8711C70.5118 19.8711 69.2008 18.5783 69.2008 16.9887C69.2008 15.399 70.5118 14.1063 72.1238 14.1063C73.7358 14.1063 75.0468 15.399 75.0468 16.9887C75.0468 18.5783 73.7358 19.8711 72.1238 19.8711Z" fill="url(#paint8_linear_7_198)"></path>
  <path d="M81.8997 41.5207C81.8369 40.4268 80.9673 39.6341 79.9004 39.7566C78.892 39.8719 78.0648 40.7525 78.1203 41.7167C78.17 42.6823 79.0601 43.472 80.105 43.4821C81.15 43.4922 81.9553 42.6131 81.8997 41.5207Z" fill="url(#paint9_linear_7_198)"></path>
  <path d="M79.9354 46.7899C78.9211 46.7063 77.9595 47.4111 77.806 48.3652C77.6584 49.3192 78.3701 50.2675 79.3932 50.4823C80.4162 50.697 81.3837 49.9937 81.5503 48.9099C81.7228 47.8276 81.0052 46.8793 79.9354 46.7899Z" fill="url(#paint10_linear_7_198)"></path>
  <path d="M78.4564 54.0378C77.4568 53.7365 76.3709 54.2266 76.0347 55.1331C75.719 56.0482 76.1823 57.1104 77.1148 57.524C78.0881 57.9549 79.2149 57.4822 79.5774 56.446C79.9603 55.417 79.4561 54.3375 78.4564 54.0378Z" fill="url(#paint11_linear_7_198)"></path>
  <path d="M75.434 60.8014C74.5206 60.2998 73.3675 60.5607 72.8604 61.3865C72.3868 62.2353 72.5184 63.3076 73.3821 63.9331C74.202 64.5297 75.4983 64.364 76.0435 63.4056C76.6208 62.4703 76.3475 61.3029 75.434 60.8014Z" fill="url(#paint12_linear_7_198)"></path>
  <path d="M71.0482 66.7909C70.2605 66.1121 69.0884 66.1394 68.4321 66.8557C67.7189 67.5172 67.6839 68.6601 68.381 69.434C69.0708 70.2022 70.3116 70.2396 71.1169 69.4873C71.8652 68.6788 71.833 67.4697 71.0482 66.7909Z" fill="url(#paint13_linear_7_198)"></path>
  <path d="M65.496 71.7529C64.8573 70.9054 63.7597 70.7714 62.915 71.2614C62.0776 71.7615 61.8174 72.8972 62.3318 73.7936C62.8463 74.69 64.0345 74.9581 64.983 74.3874C65.9374 73.8253 66.1069 72.5585 65.496 71.7529Z" fill="url(#paint14_linear_7_198)"></path>
  <path d="M59.349 75.3095C58.8959 74.3569 57.8524 74.0153 56.917 74.3093C55.9978 74.6394 55.514 75.7059 55.8355 76.6859C56.1571 77.6659 57.2649 78.1588 58.3069 77.7797C59.365 77.4367 59.7845 76.2232 59.349 75.3095Z" fill="url(#paint15_linear_7_198)"></path>
  <path d="M52.2475 77.6689C52.018 76.686 51.0535 76.0404 50.0801 76.16C49.1126 76.3055 48.4125 77.2567 48.5163 78.2829C48.6201 79.3076 49.5963 80.008 50.6939 79.8422C51.7974 79.701 52.4857 78.6936 52.2475 77.6689Z" fill="url(#paint16_linear_7_198)"></path>
  <defs>
    <linearGradient id="paint0_linear_7_198" x1="1.70445" y1="37.3188" x2="41.687" y2="73.1888" gradientUnits="userSpaceOnUse">
      <stop stop-color="#BC0D2C"></stop>
      <stop offset="1" stop-color="#E65F1E"></stop>
    </linearGradient>
    <linearGradient id="paint1_linear_7_198" x1="32.7257" y1="74.8769" x2="34.8267" y2="77.2954" gradientUnits="userSpaceOnUse">
      <stop stop-color="#BC0D2C"></stop>
      <stop offset="1" stop-color="#E65F1E"></stop>
    </linearGradient>
    <linearGradient id="paint2_linear_7_198" x1="26.9386" y1="76.5156" x2="29.0396" y2="78.9341" gradientUnits="userSpaceOnUse">
      <stop stop-color="#BC0D2C"></stop>
      <stop offset="1" stop-color="#E65F1E"></stop>
    </linearGradient>
    <linearGradient id="paint3_linear_7_198" x1="12.2658" y1="39.9355" x2="14.3668" y2="42.354" gradientUnits="userSpaceOnUse">
      <stop stop-color="#BC0D2C"></stop>
      <stop offset="1" stop-color="#E65F1E"></stop>
    </linearGradient>
    <linearGradient id="paint4_linear_7_198" x1="7.93276" y1="44.0661" x2="10.0338" y2="46.4846" gradientUnits="userSpaceOnUse">
      <stop stop-color="#BC0D2C"></stop>
      <stop offset="1" stop-color="#E65F1E"></stop>
    </linearGradient>
    <linearGradient id="paint5_linear_7_198" x1="29.5145" y1="4.90689" x2="61.518" y2="51.6046" gradientUnits="userSpaceOnUse">
      <stop stop-color="#BC0D2C"></stop>
      <stop offset="1" stop-color="#E65F1E"></stop>
    </linearGradient>
    <linearGradient id="paint6_linear_7_198" x1="36.048" y1="12.4375" x2="44.4519" y2="22.1115" gradientUnits="userSpaceOnUse">
      <stop stop-color="#BC0D2C"></stop>
      <stop offset="1" stop-color="#E65F1E"></stop>
    </linearGradient>
    <linearGradient id="paint7_linear_7_198" x1="51.3937" y1="12.5254" x2="59.7976" y2="22.1994" gradientUnits="userSpaceOnUse">
      <stop stop-color="#BC0D2C"></stop>
      <stop offset="1" stop-color="#E65F1E"></stop>
    </linearGradient>
    <linearGradient id="paint8_linear_7_198" x1="66.7394" y1="12.4375" x2="75.1433" y2="22.1115" gradientUnits="userSpaceOnUse">
      <stop stop-color="#BC0D2C"></stop>
      <stop offset="1" stop-color="#E65F1E"></stop>
    </linearGradient>
    <linearGradient id="paint9_linear_7_198" x1="78.2671" y1="40.1376" x2="80.9924" y2="43.2699" gradientUnits="userSpaceOnUse">
      <stop stop-color="#BC0D2C"></stop>
      <stop offset="1" stop-color="#E65F1E"></stop>
    </linearGradient>
    <linearGradient id="paint10_linear_7_198" x1="77.9362" y1="47.1766" x2="80.6607" y2="50.3121" gradientUnits="userSpaceOnUse">
      <stop stop-color="#BC0D2C"></stop>
      <stop offset="1" stop-color="#E65F1E"></stop>
    </linearGradient>
    <linearGradient id="paint11_linear_7_198" x1="76.0848" y1="54.342" x2="78.8083" y2="57.463" gradientUnits="userSpaceOnUse">
      <stop stop-color="#BC0D2C"></stop>
      <stop offset="1" stop-color="#E65F1E"></stop>
    </linearGradient>
    <linearGradient id="paint12_linear_7_198" x1="72.7379" y1="60.9396" x2="75.4635" y2="64.0512" gradientUnits="userSpaceOnUse">
      <stop stop-color="#BC0D2C"></stop>
      <stop offset="1" stop-color="#E65F1E"></stop>
    </linearGradient>
    <linearGradient id="paint13_linear_7_198" x1="68.0264" y1="66.6924" x2="70.7469" y2="69.8211" gradientUnits="userSpaceOnUse">
      <stop stop-color="#BC0D2C"></stop>
      <stop offset="1" stop-color="#E65F1E"></stop>
    </linearGradient>
    <linearGradient id="paint14_linear_7_198" x1="62.2173" y1="71.3685" x2="64.9186" y2="74.4985" gradientUnits="userSpaceOnUse">
      <stop stop-color="#BC0D2C"></stop>
      <stop offset="1" stop-color="#E65F1E"></stop>
    </linearGradient>
    <linearGradient id="paint15_linear_7_198" x1="55.8854" y1="74.5966" x2="58.5796" y2="77.723" gradientUnits="userSpaceOnUse">
      <stop stop-color="#BC0D2C"></stop>
      <stop offset="1" stop-color="#E65F1E"></stop>
    </linearGradient>
    <linearGradient id="paint16_linear_7_198" x1="48.6556" y1="76.5374" x2="51.3662" y2="79.6702" gradientUnits="userSpaceOnUse">
      <stop stop-color="#BC0D2C"></stop>
      <stop offset="1" stop-color="#E65F1E"></stop>
    </linearGradient>
  </defs>
</svg>