<svg xmlns="http://www.w3.org/2000/svg" width="88" height="90" viewBox="0 0 88 90" fill="none">
  <path d="M13.6315 5.83896L10.3228 4.02958L8.51187 0.719321C7.98724 -0.240519 6.41781 -0.239028 5.89616 0.719321L4.08677 4.02958L0.775026 5.84046C0.296596 6.10128 0 6.60356 0 7.14757C0 7.69307 0.298087 8.19385 0.776517 8.45617L4.08677 10.2656L5.89616 13.5743C6.15699 14.0542 6.65926 14.3508 7.20327 14.3508C7.74728 14.3508 8.24956 14.0542 8.51038 13.5743L10.3213 10.2641L13.63 8.45319C14.1085 8.19236 14.4065 7.69008 14.4065 7.14608C14.4065 6.60207 14.1099 6.09979 13.6315 5.83896ZM8.50871 7.85999C8.25831 7.99413 8.05263 8.2013 7.91551 8.4517L7.20309 9.75434L6.49215 8.4517C6.35503 8.2013 6.14935 7.99413 5.89895 7.8585L4.59781 7.14757L5.89895 6.43365C6.14786 6.29653 6.35503 6.09234 6.49066 5.84195L7.20309 4.5408L7.91551 5.84195C8.05263 6.09234 8.25831 6.29802 8.50722 6.43365L9.80986 7.14757L8.50871 7.85999Z" fill="url(#paint0_linear_7_250)"></path>
  <path d="M86.6628 28.1968L83.3525 26.386L81.5416 23.0757C81.0155 22.1173 79.4476 22.1173 78.9259 23.0757L77.1165 26.386L73.8063 28.1968C73.3278 28.4577 73.0312 28.9599 73.0312 29.5039C73.0312 30.0494 73.3293 30.5502 73.8078 30.8125L77.118 32.6219L78.9274 35.9322C79.1882 36.4106 79.6905 36.7087 80.2345 36.7087C80.7785 36.7087 81.2808 36.4121 81.5416 35.9322L83.3525 32.6219L86.6613 30.8111C87.1397 30.5502 87.4378 30.048 87.4378 29.5039C87.4376 28.9599 87.1412 28.4577 86.6628 28.1968ZM81.54 30.2164C81.2896 30.352 81.0839 30.5577 80.9468 30.8081L80.2343 32.1107L79.5219 30.8081C79.3848 30.5577 79.1791 30.3505 78.9287 30.2149L77.6276 29.5039L78.9302 28.79C79.1791 28.6529 79.3863 28.4487 79.5219 28.1983L80.2343 26.8972L80.9468 28.1983C81.0839 28.4487 81.2896 28.6544 81.5385 28.79L82.8411 29.5039L81.54 30.2164Z" fill="url(#paint1_linear_7_250)"></path>
  <path d="M73.5246 43.4142H68.2335L66.0619 23.8746C65.9859 23.189 65.4494 22.6465 64.7653 22.5601L49.6776 20.6732V13.6055C49.6776 12.908 49.1947 12.3044 48.5151 12.1509L41.0629 10.4741C40.8468 10.425 40.6232 10.425 40.4086 10.4741L32.9564 12.1509C32.2753 12.3044 31.7924 12.908 31.7924 13.6055V20.6732L16.7032 22.5601C16.0191 22.6465 15.4826 23.189 15.4065 23.8746L13.2365 43.4142H7.94543C5.48025 43.4142 3.47412 45.4204 3.47412 47.8855V49.376C3.47412 51.8412 5.48025 53.8473 7.94543 53.8473H9.43586V67.2612C6.97068 67.2612 4.96456 69.2673 4.96456 71.7325V73.5955C4.96456 75.8267 6.63235 77.7315 8.84267 78.0281L9.43586 78.1071V82.1655C9.43586 86.2747 12.7789 89.6177 16.888 89.6177H19.8689C23.978 89.6177 27.3211 86.2747 27.3211 82.1655V80.5052L40.5383 82.2773C40.6038 82.2863 40.6694 82.2907 40.7365 82.2907C40.8036 82.2907 40.8691 82.2863 40.9347 82.2773L54.1489 80.5052V82.1655C54.1489 86.2747 57.4919 89.6177 61.6011 89.6177H64.5819C68.6911 89.6177 72.0341 86.2747 72.0341 82.1655V78.1071L72.6273 78.0281C74.8391 77.7315 76.5054 75.8267 76.5054 73.5955V71.7325C76.5054 69.2673 74.4993 67.2612 72.0341 67.2612V53.8473H73.5246C75.9897 53.8473 77.9959 51.8412 77.9959 49.376V47.8855C77.9959 45.4204 75.9895 43.4142 73.5246 43.4142ZM34.7733 14.7979L40.735 13.458L46.6967 14.7979V20.3006L40.9198 19.5792C40.8587 19.5718 40.7976 19.5673 40.735 19.5673C40.6724 19.5673 40.6113 19.5718 40.5502 19.5792L34.7733 20.3006V14.7979ZM16.089 45.0358C16.0934 44.9852 16.0726 44.9375 16.0711 44.8868L18.2397 25.3725L40.7348 22.5601L63.2299 25.3725L65.3985 44.8853C65.397 44.9375 65.3762 44.9852 65.3806 45.0373L65.9068 50.9856L41.0031 46.4204C40.9151 46.4041 40.8257 46.3951 40.7348 46.3951C40.6573 46.3951 40.5798 46.4011 40.5023 46.4145L15.6195 50.3537L16.089 45.0358ZM13.9459 53.8473C14.3126 53.8473 14.6449 53.7072 14.9058 53.4851L40.7156 49.3983L69.0533 54.5925V67.2612H12.4167V53.8786L12.6194 53.8473H13.9459ZM7.94543 50.8664C7.1242 50.8664 6.45499 50.1987 6.45499 49.376V47.8855C6.45499 47.0628 7.1242 46.3951 7.94543 46.3951H12.9041L12.4078 50.8619L12.3854 50.8664H7.94543ZM24.3402 82.1655C24.3402 84.6307 22.3341 86.6368 19.8689 86.6368H16.888C14.4229 86.6368 12.4167 84.6307 12.4167 82.1655V78.5065L24.3402 80.1043V82.1655ZM69.0533 82.1655C69.0533 84.6307 67.0471 86.6368 64.5819 86.6368H61.6011C59.1359 86.6368 57.1298 84.6307 57.1298 82.1655V80.1058L69.0533 78.508V82.1655ZM73.5246 71.7325V73.5955C73.5246 74.3393 72.9686 74.9742 72.2323 75.0726L40.735 79.295L9.23745 75.0726C8.50117 74.9742 7.94524 74.3393 7.94524 73.5955V71.7325C7.94524 70.9098 8.61444 70.2421 9.43567 70.2421H10.9261H70.5435H72.0339C72.8553 70.2421 73.5246 70.9098 73.5246 71.7325ZM75.015 49.376C75.015 50.1987 74.3458 50.8664 73.5246 50.8664H69.0622L68.5659 46.3951H73.5246C74.3458 46.3951 75.015 47.0628 75.015 47.8855V49.376Z" fill="url(#paint2_linear_7_250)"></path>
  <path d="M46.6969 53.8474H34.7734C33.9507 53.8474 33.283 54.5136 33.283 55.3378C33.283 56.1621 33.9507 56.8283 34.7734 56.8283H46.6969C47.5196 56.8283 48.1873 56.1621 48.1873 55.3378C48.1873 54.5136 47.5196 53.8474 46.6969 53.8474Z" fill="url(#paint3_linear_7_250)"></path>
  <path d="M43.7158 59.8091H37.7541C36.9314 59.8091 36.2637 60.4753 36.2637 61.2995C36.2637 62.1237 36.9314 62.79 37.7541 62.79H43.7158C44.5386 62.79 45.2063 62.1237 45.2063 61.2995C45.2063 60.4753 44.5386 59.8091 43.7158 59.8091Z" fill="url(#paint4_linear_7_250)"></path>
  <path d="M21.9183 54.7163C17.9135 54.7163 14.7761 57.019 14.7761 59.9582C14.7761 62.8973 17.912 65.2 21.9183 65.2C25.9246 65.2 29.0605 62.8973 29.0605 59.9582C29.0605 57.019 25.9231 54.7163 21.9183 54.7163ZM21.9183 62.2177C19.5366 62.2177 17.757 61.0238 17.757 59.9567C17.757 58.8895 19.5366 57.6957 21.9183 57.6957C24.3 57.6957 26.0796 58.8895 26.0796 59.9567C26.0796 61.0238 24.3 62.2177 21.9183 62.2177Z" fill="url(#paint5_linear_7_250)"></path>
  <path d="M59.1793 54.7163C55.1745 54.7163 52.0371 57.019 52.0371 59.9582C52.0371 62.8973 55.173 65.2 59.1793 65.2C63.1856 65.2 66.3214 62.8973 66.3214 59.9582C66.3214 57.019 63.1841 54.7163 59.1793 54.7163ZM59.1793 62.2177C56.7976 62.2177 55.018 61.0238 55.018 59.9567C55.018 58.8895 56.7976 57.6957 59.1793 57.6957C61.561 57.6957 63.3406 58.8895 63.3406 59.9567C63.3406 61.0238 61.561 62.2177 59.1793 62.2177Z" fill="url(#paint6_linear_7_250)"></path>
  <path d="M33.2829 28.51H24.3403C23.5176 28.51 22.8499 29.1762 22.8499 30.0004C22.8499 30.8247 23.5176 31.4909 24.3403 31.4909H33.2829C34.1056 31.4909 34.7733 30.8247 34.7733 30.0004C34.7733 29.1762 34.1056 28.51 33.2829 28.51Z" fill="url(#paint7_linear_7_250)"></path>
  <path d="M40.735 28.51H39.2446C38.4219 28.51 37.7542 29.1762 37.7542 30.0004C37.7542 30.8247 38.4219 31.4909 39.2446 31.4909H40.735C41.5577 31.4909 42.2255 30.8247 42.2255 30.0004C42.2255 29.1762 41.5577 28.51 40.735 28.51Z" fill="url(#paint8_linear_7_250)"></path>
  <path d="M52.6586 38.9431H43.716C42.8933 38.9431 42.2256 39.6093 42.2256 40.4336C42.2256 41.2578 42.8933 41.924 43.716 41.924H52.6586C53.4813 41.924 54.1491 41.2578 54.1491 40.4336C54.1491 39.6093 53.4813 38.9431 52.6586 38.9431Z" fill="url(#paint9_linear_7_250)"></path>
  <path d="M60.1108 38.9431H58.6203C57.7976 38.9431 57.1299 39.6093 57.1299 40.4336C57.1299 41.2578 57.7976 41.924 58.6203 41.924H60.1108C60.9335 41.924 61.6012 41.2578 61.6012 40.4336C61.6012 39.6093 60.9335 38.9431 60.1108 38.9431Z" fill="url(#paint10_linear_7_250)"></path>
  <defs>
    <linearGradient id="paint0_linear_7_250" x1="0.568679" y1="1.51061" x2="11.0434" y2="13.447" gradientUnits="userSpaceOnUse">
      <stop stop-color="#BC0D2C"></stop>
      <stop offset="1" stop-color="#E65F1E"></stop>
    </linearGradient>
    <linearGradient id="paint1_linear_7_250" x1="73.5999" y1="23.8676" x2="84.0754" y2="35.8041" gradientUnits="userSpaceOnUse">
      <stop stop-color="#BC0D2C"></stop>
      <stop offset="1" stop-color="#E65F1E"></stop>
    </linearGradient>
    <linearGradient id="paint2_linear_7_250" x1="6.41577" y1="18.772" x2="64.5763" y2="80.9077" gradientUnits="userSpaceOnUse">
      <stop stop-color="#BC0D2C"></stop>
      <stop offset="1" stop-color="#E65F1E"></stop>
    </linearGradient>
    <linearGradient id="paint3_linear_7_250" x1="33.8713" y1="54.1612" x2="34.6212" y2="58.4177" gradientUnits="userSpaceOnUse">
      <stop stop-color="#BC0D2C"></stop>
      <stop offset="1" stop-color="#E65F1E"></stop>
    </linearGradient>
    <linearGradient id="paint4_linear_7_250" x1="36.6167" y1="60.1229" x2="37.8031" y2="64.1631" gradientUnits="userSpaceOnUse">
      <stop stop-color="#BC0D2C"></stop>
      <stop offset="1" stop-color="#E65F1E"></stop>
    </linearGradient>
    <linearGradient id="paint5_linear_7_250" x1="15.34" y1="55.8199" x2="22.3776" y2="66.7046" gradientUnits="userSpaceOnUse">
      <stop stop-color="#BC0D2C"></stop>
      <stop offset="1" stop-color="#E65F1E"></stop>
    </linearGradient>
    <linearGradient id="paint6_linear_7_250" x1="52.601" y1="55.8199" x2="59.6386" y2="66.7046" gradientUnits="userSpaceOnUse">
      <stop stop-color="#BC0D2C"></stop>
      <stop offset="1" stop-color="#E65F1E"></stop>
    </linearGradient>
    <linearGradient id="paint7_linear_7_250" x1="23.3205" y1="28.8238" x2="24.2424" y2="33.0094" gradientUnits="userSpaceOnUse">
      <stop stop-color="#BC0D2C"></stop>
      <stop offset="1" stop-color="#E65F1E"></stop>
    </linearGradient>
    <linearGradient id="paint8_linear_7_250" x1="37.9306" y1="28.8238" x2="39.8471" y2="32.0869" gradientUnits="userSpaceOnUse">
      <stop stop-color="#BC0D2C"></stop>
      <stop offset="1" stop-color="#E65F1E"></stop>
    </linearGradient>
    <linearGradient id="paint9_linear_7_250" x1="42.6962" y1="39.2569" x2="43.6181" y2="43.4425" gradientUnits="userSpaceOnUse">
      <stop stop-color="#BC0D2C"></stop>
      <stop offset="1" stop-color="#E65F1E"></stop>
    </linearGradient>
    <linearGradient id="paint10_linear_7_250" x1="57.3064" y1="39.2569" x2="59.2228" y2="42.52" gradientUnits="userSpaceOnUse">
      <stop stop-color="#BC0D2C"></stop>
      <stop offset="1" stop-color="#E65F1E"></stop>
    </linearGradient>
  </defs>
</svg>