<svg xmlns="http://www.w3.org/2000/svg" width="77" height="74" viewBox="0 0 77 74" fill="none">
  <path d="M68.634 11H8.75737C5.58275 11 3 13.5828 3 16.7574V58.2104C3 61.385 5.58275 63.9678 8.75737 63.9678H68.634C71.8086 63.9678 74.3914 61.385 74.3914 58.2104V16.7574C74.3914 13.5828 71.8086 11 68.634 11ZM9.90884 61.6648H8.75737C6.85283 61.6648 5.30295 60.1149 5.30295 58.2104V16.7574C5.30295 14.8528 6.85283 13.3029 8.75737 13.3029H9.90884V61.6648ZM62.8766 61.6648H12.2118V13.3029H62.8766V61.6648ZM72.0884 58.2104C72.0884 60.1149 70.5385 61.6648 68.634 61.6648H65.1796V13.3029H68.634C70.5385 13.3029 72.0884 14.8528 72.0884 16.7574V58.2104Z" fill="url(#paint0_linear_174_30)"></path>
  <path d="M69.7854 32.8782H67.4824V42.09H69.7854V32.8782Z" fill="url(#paint1_linear_174_30)"></path>
  <path d="M26.0295 36.3325C31.7443 36.3325 36.3928 31.684 36.3928 25.9692C36.3928 20.2545 31.7443 15.606 26.0295 15.606C20.3148 15.606 15.6663 20.2545 15.6663 25.9692C15.6663 31.684 20.3148 36.3325 26.0295 36.3325ZM26.0295 17.9089C30.4731 17.9089 34.0898 21.5257 34.0898 25.9692C34.0898 30.4128 30.4731 34.0295 26.0295 34.0295C21.586 34.0295 17.9692 30.4128 17.9692 25.9692C17.9692 21.5257 21.586 17.9089 26.0295 17.9089Z" fill="url(#paint2_linear_174_30)"></path>
  <path d="M49.0588 36.3325C54.7736 36.3325 59.4221 31.684 59.4221 25.9692C59.4221 20.2545 54.7736 15.606 49.0588 15.606C43.3441 15.606 38.6956 20.2545 38.6956 25.9692C38.6956 31.684 43.3441 36.3325 49.0588 36.3325ZM49.0588 17.9089C53.5024 17.9089 57.1191 21.5257 57.1191 25.9692C57.1191 30.4128 53.5024 34.0295 49.0588 34.0295C44.6153 34.0295 40.9985 30.4128 40.9985 25.9692C40.9985 21.5257 44.6153 17.9089 49.0588 17.9089Z" fill="url(#paint3_linear_174_30)"></path>
  <path d="M26.0295 59.362C31.7443 59.362 36.3928 54.7135 36.3928 48.9988C36.3928 43.284 31.7443 38.6355 26.0295 38.6355C20.3148 38.6355 15.6663 43.284 15.6663 48.9988C15.6663 54.7135 20.3148 59.362 26.0295 59.362ZM26.0295 40.9384C30.4731 40.9384 34.0898 44.5552 34.0898 48.9988C34.0898 53.4423 30.4731 57.0591 26.0295 57.0591C21.586 57.0591 17.9692 53.4423 17.9692 48.9988C17.9692 44.5552 21.586 40.9384 26.0295 40.9384Z" fill="url(#paint4_linear_174_30)"></path>
  <path d="M49.0588 59.362C54.7736 59.362 59.4221 54.7135 59.4221 48.9988C59.4221 43.284 54.7736 38.6355 49.0588 38.6355C43.3441 38.6355 38.6956 43.284 38.6956 48.9988C38.6956 54.7135 43.3441 59.362 49.0588 59.362ZM54.8162 43.3681C56.2383 44.8235 57.1191 46.8087 57.1191 48.9988C57.1191 51.1889 56.2383 53.174 54.8162 54.6283V43.3681ZM49.06 57.0591C46.871 57.0591 44.8836 56.1782 43.4293 54.7561H54.6895C53.2352 56.1782 51.2489 57.0591 49.06 57.0591ZM49.0588 50.6269L52.5132 47.1725V52.4532H45.6044V47.1725L49.0588 50.6269ZM47.2326 45.5443H50.8851L49.0588 47.3706L47.2326 45.5443ZM49.0577 40.9384C51.2466 40.9384 53.2341 41.8193 54.6884 43.2414H43.4281C44.8824 41.8193 46.8687 40.9384 49.0577 40.9384ZM43.3015 43.3692V54.6295C41.8794 53.1752 40.9985 51.1889 40.9985 48.9999C40.9985 46.811 41.8794 44.8235 43.3015 43.3692Z" fill="url(#paint5_linear_174_30)"></path>
  <path d="M24.8779 31.7266H27.1808V28.2722H29.4838V25.9693H27.1808V22.5149H30.6353V20.2119H24.8779V25.9693H22.575V28.2722H24.8779V31.7266Z" fill="url(#paint6_linear_174_30)"></path>
  <path d="M47.9074 28.2722H50.7861C53.0085 28.2722 54.8163 26.4644 54.8163 24.2421C54.8163 22.0197 53.0085 20.2119 50.7861 20.2119H45.6045V31.7266H47.9074V28.2722ZM47.9074 22.5149H50.7861C51.7384 22.5149 52.5133 23.2898 52.5133 24.2421C52.5133 25.1943 51.7384 25.9693 50.7861 25.9693H47.9074V22.5149Z" fill="url(#paint7_linear_174_30)"></path>
  <path d="M22.575 42.2419V55.7556L32.7114 48.9988L22.575 42.2419ZM24.8779 46.5438L28.5592 48.9988L24.8779 51.4537V46.5438Z" fill="url(#paint8_linear_174_30)"></path>
  <defs>
    <linearGradient id="paint0_linear_174_30" x1="5.81808" y1="16.5756" x2="41.5316" y2="71.216" gradientUnits="userSpaceOnUse">
      <stop stop-color="#BC0D2C"></stop>
      <stop offset="1" stop-color="#E65F1E"></stop>
    </linearGradient>
    <linearGradient id="paint1_linear_174_30" x1="67.5733" y1="33.8478" x2="71.1352" y2="34.8586" gradientUnits="userSpaceOnUse">
      <stop stop-color="#BC0D2C"></stop>
      <stop offset="1" stop-color="#E65F1E"></stop>
    </linearGradient>
    <linearGradient id="paint2_linear_174_30" x1="16.4844" y1="17.7877" x2="31.6202" y2="34.9689" gradientUnits="userSpaceOnUse">
      <stop stop-color="#BC0D2C"></stop>
      <stop offset="1" stop-color="#E65F1E"></stop>
    </linearGradient>
    <linearGradient id="paint3_linear_174_30" x1="39.5137" y1="17.7877" x2="54.6495" y2="34.9689" gradientUnits="userSpaceOnUse">
      <stop stop-color="#BC0D2C"></stop>
      <stop offset="1" stop-color="#E65F1E"></stop>
    </linearGradient>
    <linearGradient id="paint4_linear_174_30" x1="16.4844" y1="40.8172" x2="31.6202" y2="57.9984" gradientUnits="userSpaceOnUse">
      <stop stop-color="#BC0D2C"></stop>
      <stop offset="1" stop-color="#E65F1E"></stop>
    </linearGradient>
    <linearGradient id="paint5_linear_174_30" x1="39.5137" y1="40.8172" x2="54.6495" y2="57.9984" gradientUnits="userSpaceOnUse">
      <stop stop-color="#BC0D2C"></stop>
      <stop offset="1" stop-color="#E65F1E"></stop>
    </linearGradient>
    <linearGradient id="paint6_linear_174_30" x1="22.8931" y1="21.424" x2="31.1503" y2="27.9851" gradientUnits="userSpaceOnUse">
      <stop stop-color="#BC0D2C"></stop>
      <stop offset="1" stop-color="#E65F1E"></stop>
    </linearGradient>
    <linearGradient id="paint7_linear_174_30" x1="45.9681" y1="21.424" x2="54.4053" y2="29.0859" gradientUnits="userSpaceOnUse">
      <stop stop-color="#BC0D2C"></stop>
      <stop offset="1" stop-color="#E65F1E"></stop>
    </linearGradient>
    <linearGradient id="paint8_linear_174_30" x1="22.9751" y1="43.6644" x2="32.7957" y2="52.0262" gradientUnits="userSpaceOnUse">
      <stop stop-color="#BC0D2C"></stop>
      <stop offset="1" stop-color="#E65F1E"></stop>
    </linearGradient>
  </defs>
</svg>