<svg xmlns="http://www.w3.org/2000/svg" width="79" height="79" viewBox="0 0 79 79" fill="none">
  <path d="M55.6591 32.3181H44.8863H34.1136H23.3409C22.348 32.3181 21.5454 33.1225 21.5454 34.1136V46.6818C21.5454 47.6729 22.348 48.4774 23.3409 48.4774H34.1136H44.8863H55.6591C56.652 48.4774 57.4546 47.6729 57.4546 46.6818V34.1136C57.4544 33.1225 56.6518 32.3181 55.6591 32.3181ZM32.3181 44.8863H25.1363V35.9091H32.3181V44.8863ZM43.0908 44.8863H35.909V35.9091H43.0908V44.8863ZM53.8635 44.8863H46.6817V35.9091H53.8635V44.8863Z" fill="url(#paint0_linear_7_284)"></path>
  <path d="M8.97715 32.3181C9.96878 32.3181 10.7727 31.5142 10.7727 30.5226C10.7727 29.5309 9.96878 28.7271 8.97715 28.7271C7.98552 28.7271 7.18164 29.5309 7.18164 30.5226C7.18164 31.5142 7.98552 32.3181 8.97715 32.3181Z" fill="url(#paint1_linear_7_284)"></path>
  <path d="M8.97715 39.5C9.96878 39.5 10.7727 38.6961 10.7727 37.7044C10.7727 36.7128 9.96878 35.9089 8.97715 35.9089C7.98552 35.9089 7.18164 36.7128 7.18164 37.7044C7.18164 38.6961 7.98552 39.5 8.97715 39.5Z" fill="url(#paint2_linear_7_284)"></path>
  <path d="M8.97715 46.6818C9.96878 46.6818 10.7727 45.878 10.7727 44.8863C10.7727 43.8947 9.96878 43.0908 8.97715 43.0908C7.98552 43.0908 7.18164 43.8947 7.18164 44.8863C7.18164 45.878 7.98552 46.6818 8.97715 46.6818Z" fill="url(#paint3_linear_7_284)"></path>
  <path d="M8.97715 53.8637C9.96878 53.8637 10.7727 53.0598 10.7727 52.0682C10.7727 51.0766 9.96878 50.2727 8.97715 50.2727C7.98552 50.2727 7.18164 51.0766 7.18164 52.0682C7.18164 53.0598 7.98552 53.8637 8.97715 53.8637Z" fill="url(#paint4_linear_7_284)"></path>
  <path d="M8.97715 61.0456C9.96878 61.0456 10.7727 60.2417 10.7727 59.2501C10.7727 58.2585 9.96878 57.4546 8.97715 57.4546C7.98552 57.4546 7.18164 58.2585 7.18164 59.2501C7.18164 60.2417 7.98552 61.0456 8.97715 61.0456Z" fill="url(#paint5_linear_7_284)"></path>
  <path d="M73.6135 21.5454H64.6363V16.1591C64.6363 13.1893 62.2196 10.7727 59.2499 10.7727H53.3914C51.7898 4.58732 46.1772 0 39.5 0C32.8228 0 27.2102 4.58732 25.6086 10.7727H19.7501C16.7803 10.7727 14.3637 13.1893 14.3637 16.1591V21.5454H5.38636C2.41662 21.5454 0 23.962 0 26.9318V66.4318V77.2045C0 78.1956 0.802567 79 1.79551 79H77.2045C78.1974 79 79 78.1956 79 77.2045V66.4318V26.9318C78.9998 23.962 76.5832 21.5454 73.6135 21.5454ZM14.3636 75.409H3.59085V68.2271H14.3636V75.409ZM14.3636 64.6363H3.59085V26.9318C3.59085 25.9425 4.39527 25.1363 5.38636 25.1363H14.3636V64.6363ZM39.5 3.59085C45.4412 3.59085 50.2727 8.42241 50.2727 14.3636C50.2727 20.3047 45.4412 25.1363 39.5 25.1363C33.5588 25.1363 28.7273 20.3047 28.7273 14.3636C28.7273 8.42241 33.5588 3.59085 39.5 3.59085ZM37.7045 75.409H26.9318V55.6591H37.7045V75.409ZM52.0681 75.409H41.2953V55.6591H52.0681V75.409ZM61.0454 23.3409V66.4318V75.409H55.6591V53.8636C55.6591 52.8725 54.8565 52.0681 53.8636 52.0681H25.1363C24.1433 52.0681 23.3408 52.8725 23.3408 53.8636V75.409H17.9544V66.4318V23.3409V16.1591C17.9544 15.1698 18.7588 14.3636 19.7499 14.3636H25.1363C25.1363 22.2834 31.5802 28.7271 39.4998 28.7271C47.4195 28.7271 53.8636 22.2834 53.8636 14.3636H59.2499C60.241 14.3636 61.0454 15.1697 61.0454 16.1591V23.3409ZM75.409 75.409H64.6363V68.2271H75.409V75.409ZM75.409 64.6363H64.6363V25.1363H73.6135C74.6046 25.1363 75.409 25.9424 75.409 26.9318V64.6363Z" fill="url(#paint6_linear_7_284)"></path>
  <path d="M70.0226 32.3181C71.0142 32.3181 71.8181 31.5142 71.8181 30.5226C71.8181 29.5309 71.0142 28.7271 70.0226 28.7271C69.0309 28.7271 68.2271 29.5309 68.2271 30.5226C68.2271 31.5142 69.0309 32.3181 70.0226 32.3181Z" fill="url(#paint7_linear_7_284)"></path>
  <path d="M70.0226 39.5C71.0142 39.5 71.8181 38.6961 71.8181 37.7044C71.8181 36.7128 71.0142 35.9089 70.0226 35.9089C69.0309 35.9089 68.2271 36.7128 68.2271 37.7044C68.2271 38.6961 69.0309 39.5 70.0226 39.5Z" fill="url(#paint8_linear_7_284)"></path>
  <path d="M70.0226 46.6818C71.0142 46.6818 71.8181 45.878 71.8181 44.8863C71.8181 43.8947 71.0142 43.0908 70.0226 43.0908C69.0309 43.0908 68.2271 43.8947 68.2271 44.8863C68.2271 45.878 69.0309 46.6818 70.0226 46.6818Z" fill="url(#paint9_linear_7_284)"></path>
  <path d="M70.0226 53.8637C71.0142 53.8637 71.8181 53.0598 71.8181 52.0682C71.8181 51.0766 71.0142 50.2727 70.0226 50.2727C69.0309 50.2727 68.2271 51.0766 68.2271 52.0682C68.2271 53.0598 69.0309 53.8637 70.0226 53.8637Z" fill="url(#paint10_linear_7_284)"></path>
  <path d="M70.0226 61.0456C71.0142 61.0456 71.8181 60.2417 71.8181 59.2501C71.8181 58.2585 71.0142 57.4546 70.0226 57.4546C69.0309 57.4546 68.2271 58.2585 68.2271 59.2501C68.2271 60.2417 69.0309 61.0456 70.0226 61.0456Z" fill="url(#paint11_linear_7_284)"></path>
  <path d="M43.0909 8.97705C42.098 8.97705 41.2954 9.78147 41.2954 10.7726V12.5681H37.7045V10.7726C37.7045 9.78147 36.902 8.97705 35.909 8.97705C34.9161 8.97705 34.1135 9.78147 34.1135 10.7726V17.9544C34.1135 18.9455 34.9161 19.7499 35.909 19.7499C36.902 19.7499 37.7045 18.9455 37.7045 17.9544V16.1589H41.2954V17.9544C41.2954 18.9455 42.098 19.7499 43.0909 19.7499C44.0838 19.7499 44.8864 18.9455 44.8864 17.9544V10.7726C44.8864 9.78147 44.0838 8.97705 43.0909 8.97705Z" fill="url(#paint12_linear_7_284)"></path>
  <defs>
    <linearGradient id="paint0_linear_7_284" x1="22.9629" y1="34.0191" x2="31.1134" y2="54.5788" gradientUnits="userSpaceOnUse">
      <stop stop-color="#BC0D2C"></stop>
      <stop offset="1" stop-color="#E65F1E"></stop>
    </linearGradient>
    <linearGradient id="paint1_linear_7_284" x1="7.32339" y1="29.1051" x2="9.94578" y2="32.0818" gradientUnits="userSpaceOnUse">
      <stop stop-color="#BC0D2C"></stop>
      <stop offset="1" stop-color="#E65F1E"></stop>
    </linearGradient>
    <linearGradient id="paint2_linear_7_284" x1="7.32339" y1="36.2869" x2="9.94578" y2="39.2637" gradientUnits="userSpaceOnUse">
      <stop stop-color="#BC0D2C"></stop>
      <stop offset="1" stop-color="#E65F1E"></stop>
    </linearGradient>
    <linearGradient id="paint3_linear_7_284" x1="7.32339" y1="43.4688" x2="9.94578" y2="46.4456" gradientUnits="userSpaceOnUse">
      <stop stop-color="#BC0D2C"></stop>
      <stop offset="1" stop-color="#E65F1E"></stop>
    </linearGradient>
    <linearGradient id="paint4_linear_7_284" x1="7.32339" y1="50.6507" x2="9.94578" y2="53.6275" gradientUnits="userSpaceOnUse">
      <stop stop-color="#BC0D2C"></stop>
      <stop offset="1" stop-color="#E65F1E"></stop>
    </linearGradient>
    <linearGradient id="paint5_linear_7_284" x1="7.32339" y1="57.8326" x2="9.94578" y2="60.8094" gradientUnits="userSpaceOnUse">
      <stop stop-color="#BC0D2C"></stop>
      <stop offset="1" stop-color="#E65F1E"></stop>
    </linearGradient>
    <linearGradient id="paint6_linear_7_284" x1="3.11842" y1="8.31579" x2="60.8092" y2="73.8026" gradientUnits="userSpaceOnUse">
      <stop stop-color="#BC0D2C"></stop>
      <stop offset="1" stop-color="#E65F1E"></stop>
    </linearGradient>
    <linearGradient id="paint7_linear_7_284" x1="68.3688" y1="29.1051" x2="70.9912" y2="32.0818" gradientUnits="userSpaceOnUse">
      <stop stop-color="#BC0D2C"></stop>
      <stop offset="1" stop-color="#E65F1E"></stop>
    </linearGradient>
    <linearGradient id="paint8_linear_7_284" x1="68.3688" y1="36.2869" x2="70.9912" y2="39.2637" gradientUnits="userSpaceOnUse">
      <stop stop-color="#BC0D2C"></stop>
      <stop offset="1" stop-color="#E65F1E"></stop>
    </linearGradient>
    <linearGradient id="paint9_linear_7_284" x1="68.3688" y1="43.4688" x2="70.9912" y2="46.4456" gradientUnits="userSpaceOnUse">
      <stop stop-color="#BC0D2C"></stop>
      <stop offset="1" stop-color="#E65F1E"></stop>
    </linearGradient>
    <linearGradient id="paint10_linear_7_284" x1="68.3688" y1="50.6507" x2="70.9912" y2="53.6275" gradientUnits="userSpaceOnUse">
      <stop stop-color="#BC0D2C"></stop>
      <stop offset="1" stop-color="#E65F1E"></stop>
    </linearGradient>
    <linearGradient id="paint11_linear_7_284" x1="68.3688" y1="57.8326" x2="70.9912" y2="60.8094" gradientUnits="userSpaceOnUse">
      <stop stop-color="#BC0D2C"></stop>
      <stop offset="1" stop-color="#E65F1E"></stop>
    </linearGradient>
    <linearGradient id="paint12_linear_7_284" x1="34.5388" y1="10.111" x2="42.4058" y2="19.0412" gradientUnits="userSpaceOnUse">
      <stop stop-color="#BC0D2C"></stop>
      <stop offset="1" stop-color="#E65F1E"></stop>
    </linearGradient>
  </defs>
</svg>