<svg xmlns="http://www.w3.org/2000/svg" width="85" height="85" viewBox="0 0 85 85" fill="none">
  <path d="M58.6458 25.5354C54.7401 25.5354 51.5625 28.713 51.5625 32.6187C51.5625 36.5245 54.7415 39.7021 58.6458 39.7021C62.5516 39.7021 65.7292 36.5245 65.7292 32.6187C65.7292 28.713 62.5516 25.5354 58.6458 25.5354ZM58.6458 36.8687C56.3027 36.8687 54.3958 34.9619 54.3958 32.6187C54.3958 30.2756 56.3027 28.3687 58.6458 28.3687C60.989 28.3687 62.8958 30.2756 62.8958 32.6187C62.8958 34.9619 60.989 36.8687 58.6458 36.8687Z" fill="url(#paint0_linear_7_182)"></path>
  <path d="M63.7499 42.3938H53.8333C51.4901 42.3938 49.5833 44.3006 49.5833 46.6438V48.0605C49.5833 50.4036 51.4901 52.3105 53.8333 52.3105H63.7499C66.0931 52.3105 67.9999 50.4036 67.9999 48.0605V46.6438C67.9999 44.3006 66.0931 42.3938 63.7499 42.3938ZM65.1666 48.0605C65.1666 48.8425 64.5319 49.4771 63.7499 49.4771H53.8333C53.0513 49.4771 52.4166 48.8425 52.4166 48.0605V46.6438C52.4166 45.8618 53.0513 45.2271 53.8333 45.2271H63.7499C64.5319 45.2271 65.1666 45.8618 65.1666 46.6438V48.0605Z" fill="url(#paint1_linear_7_182)"></path>
  <path d="M83.5833 60.8104H73.4882C75.4602 59.2804 76.5567 56.7814 76.2294 54.1662L72.7132 26.0043C72.658 25.5623 72.3988 25.1727 72.0134 24.9517L65.4783 21.1976L64.5589 16.8937H66.5833C67.3667 16.8937 68 16.2605 68 15.4771V9.81042C68 9.027 67.3667 8.39375 66.5833 8.39375H65.6313C65.7064 7.84408 65.7291 7.34258 65.7291 7.04792C65.7291 3.162 62.5515 0 58.6457 0C54.74 0 51.5624 3.1535 51.5624 7.0295C51.5624 7.32842 51.5851 7.837 51.6616 8.39375H51C50.2166 8.39375 49.5833 9.027 49.5833 9.81042V15.4771C49.5833 16.2605 50.2166 16.8937 51 16.8937H52.6447L51.714 21.25L45.9538 25.1671C45.6294 25.3881 45.4113 25.7323 45.3503 26.1205L40.9743 54.179C40.6484 56.7871 41.7322 59.279 43.69 60.8118H32.5833C32.5833 60.0284 31.9487 59.3952 31.1667 59.3952H26.9167V50.3526C30.9329 50.1004 33.8569 48.7914 35.5867 46.427C37.638 43.622 37.9157 39.5278 36.4253 34.2621C36.4296 34.1176 36.4197 33.9717 36.3772 33.8286C35.0072 29.0983 32.7023 24.8866 32.6046 24.7095C32.3552 24.2576 31.8807 23.9771 31.3636 23.9771H20.7868C20.2583 23.9771 19.7752 24.2703 19.5316 24.7378C19.4565 24.8823 17.6687 28.3192 16.3016 32.3864C16.2605 32.5068 16.2704 32.6315 16.2633 32.7547C14.1822 39.0065 14.2644 43.7283 16.5198 46.7812C18.0866 48.9048 20.6281 50.1004 24.0833 50.354V59.3938H19.8333C19.0513 59.3938 18.4167 60.027 18.4167 60.8104H1.41667C0.634667 60.8104 0 61.4437 0 62.2271V67.8938C0 68.6772 0.634667 69.3104 1.41667 69.3104H2.83333V83.4771C2.83333 84.2605 3.468 84.8938 4.25 84.8938H21.25H63.75H80.75C81.5334 84.8938 82.1667 84.2605 82.1667 83.4771V69.3104H83.5833C84.3667 69.3104 85 68.6772 85 67.8938V62.2271C85 61.4437 84.3667 60.8104 83.5833 60.8104ZM58.6457 2.83333C60.9889 2.83333 62.8957 4.72317 62.8957 7.04792C62.8957 7.51258 62.8263 8.02542 62.747 8.39375H54.5473C54.4666 8.02117 54.3957 7.49983 54.3957 7.0295C54.3957 4.71608 56.3026 2.83333 58.6457 2.83333ZM43.7792 54.5728L48.0548 27.1646L53.7767 23.2744C54.0784 23.069 54.2881 22.7559 54.3646 22.3989L55.7812 15.7732C55.8705 15.3552 55.7671 14.9175 55.4979 14.586C55.2287 14.2545 54.8236 14.0604 54.3957 14.0604H52.4167V11.2271H53.7653H63.5276H65.1667V14.0604H62.8079C62.3801 14.0604 61.9749 14.2545 61.7072 14.586C61.438 14.9175 61.3332 15.3552 61.4238 15.7732L62.8405 22.406C62.9241 22.7984 63.1706 23.1384 63.5191 23.3382L69.989 27.0555L73.4187 54.5176C73.6709 56.5392 72.5645 58.4545 70.7285 59.1798C70.2553 59.364 69.6362 59.16 69.2594 58.6911L67.6855 56.7318C66.8737 55.7218 65.6667 55.1438 64.3719 55.1438H52.9012C51.6247 55.1438 50.4262 55.709 49.6159 56.6978L47.9527 58.7265C47.5688 59.194 46.9667 59.3952 46.4865 59.2025C44.6434 58.4786 43.5313 56.559 43.7792 54.5728ZM67.3752 60.8104H49.8511C49.9474 60.7127 50.0551 60.6319 50.1443 60.5243L51.8089 58.4956C52.0781 58.1669 52.4762 57.9771 52.9026 57.9771H64.3733C64.8054 57.9771 65.2063 58.1698 65.4769 58.5055L67.0508 60.4662C67.1514 60.5908 67.2647 60.6999 67.3752 60.8104ZM21.6637 26.8104H30.5065C31.0193 27.8205 31.9614 29.7741 32.8057 32.0521C32.2122 31.858 31.4868 31.6951 30.5022 31.637C30.2671 31.62 30.0192 31.6101 29.75 31.6101C27.8191 31.6101 26.8076 32.0492 25.9137 32.436C25.1501 32.7661 24.5466 33.0282 23.2036 33.0282C21.9172 33.0282 21.3307 32.7278 20.587 32.3496C20.2583 32.181 19.9084 32.0039 19.499 31.8467C20.3093 29.6763 21.1792 27.8049 21.6637 26.8104ZM18.7992 45.0996C16.9207 42.5538 17.5539 38.2826 18.598 34.7593C18.8403 34.8514 19.0726 34.9619 19.3262 35.0809C20.2286 35.5045 21.2514 35.9847 23.2036 35.9847C25.1572 35.9847 26.1786 35.5031 27.0796 35.0781C27.8347 34.7239 28.4297 34.4434 29.75 34.4434C31.0732 34.4434 31.671 34.7239 32.4289 35.0781C32.8468 35.275 33.3016 35.4875 33.8753 35.6575C34.6403 38.6311 35.0483 42.364 33.3016 44.7539C32.0011 46.5318 29.5531 47.4796 26.0312 47.5688C22.4754 47.6694 20.0742 46.8293 18.7992 45.0996ZM62.3333 82.0604H22.6667V79.2271C22.6667 78.4451 23.3027 77.8104 24.0833 77.8104H60.9167C61.6987 77.8104 62.3333 78.4451 62.3333 79.2271V82.0604ZM79.3333 82.0604H65.1667V79.2271C65.1667 76.8839 63.2598 74.9771 60.9167 74.9771H24.0833C21.7402 74.9771 19.8333 76.8839 19.8333 79.2271V82.0604H5.66667V69.3104H79.3333V82.0604ZM82.1667 66.4771H80.75H4.25H2.83333V63.6438H82.1667V66.4771Z" fill="url(#paint2_linear_7_182)"></path>
  <path d="M16.9999 14.0603H14.1666V11.227C14.1666 10.4436 13.5319 9.8103 12.7499 9.8103C11.9679 9.8103 11.3333 10.4436 11.3333 11.227V14.0603H8.49992C7.71792 14.0603 7.08325 14.6936 7.08325 15.477C7.08325 16.2604 7.71792 16.8936 8.49992 16.8936H11.3333V19.727C11.3333 20.5104 11.9679 21.1436 12.7499 21.1436C13.5319 21.1436 14.1666 20.5104 14.1666 19.727V16.8936H16.9999C17.7819 16.8936 18.4166 16.2604 18.4166 15.477C18.4166 14.6936 17.7819 14.0603 16.9999 14.0603Z" fill="url(#paint3_linear_7_182)"></path>
  <path d="M32.5833 5.56038H31.1667V4.14372C31.1667 3.3603 30.532 2.72705 29.75 2.72705C28.968 2.72705 28.3333 3.3603 28.3333 4.14372V5.56038H26.9167C26.1347 5.56038 25.5 6.19363 25.5 6.97705C25.5 7.76047 26.1347 8.39372 26.9167 8.39372H28.3333V9.81038C28.3333 10.5938 28.968 11.2271 29.75 11.2271C30.532 11.2271 31.1667 10.5938 31.1667 9.81038V8.39372H32.5833C33.3653 8.39372 34 7.76047 34 6.97705C34 6.19363 33.3653 5.56038 32.5833 5.56038Z" fill="url(#paint4_linear_7_182)"></path>
  <defs>
    <linearGradient id="paint0_linear_7_182" x1="52.1217" y1="27.0266" x2="62.4671" y2="38.77" gradientUnits="userSpaceOnUse">
      <stop stop-color="#BC0D2C"></stop>
      <stop offset="1" stop-color="#E65F1E"></stop>
    </linearGradient>
    <linearGradient id="paint1_linear_7_182" x1="50.3102" y1="43.4377" x2="55.9638" y2="55.3559" gradientUnits="userSpaceOnUse">
      <stop stop-color="#BC0D2C"></stop>
      <stop offset="1" stop-color="#E65F1E"></stop>
    </linearGradient>
    <linearGradient id="paint2_linear_7_182" x1="3.35526" y1="8.93618" x2="65.3402" y2="79.3856" gradientUnits="userSpaceOnUse">
      <stop stop-color="#BC0D2C"></stop>
      <stop offset="1" stop-color="#E65F1E"></stop>
    </linearGradient>
    <linearGradient id="paint3_linear_7_182" x1="7.53062" y1="11.0033" x2="15.8069" y2="20.398" gradientUnits="userSpaceOnUse">
      <stop stop-color="#BC0D2C"></stop>
      <stop offset="1" stop-color="#E65F1E"></stop>
    </linearGradient>
    <linearGradient id="paint4_linear_7_182" x1="25.8355" y1="3.62179" x2="32.0428" y2="10.6678" gradientUnits="userSpaceOnUse">
      <stop stop-color="#BC0D2C"></stop>
      <stop offset="1" stop-color="#E65F1E"></stop>
    </linearGradient>
  </defs>
</svg>